<svg width="28" height="25" viewBox="0 0 28 25" fill="none" xmlns="http://www.w3.org/2000/svg">
<path d="M27.4463 0.462525C27.3257 0.358361 27.179 0.289105 27.0219 0.26223C26.8648 0.235354 26.7034 0.25188 26.5551 0.310024L1.22255 10.2238C0.914428 10.3443 0.653737 10.5616 0.479629 10.843C0.305521 11.1243 0.227393 11.4546 0.256981 11.7841C0.286568 12.1137 0.422272 12.4247 0.643714 12.6706C0.865155 12.9164 1.16038 13.0838 1.48505 13.1475L8.25005 14.4763V22C8.25019 22.3488 8.35456 22.6896 8.54976 22.9787C8.74497 23.2678 9.0221 23.4919 9.34559 23.6223C9.66908 23.7528 10.0242 23.7836 10.3653 23.7108C10.7064 23.638 11.018 23.4649 11.2601 23.2138L14.5901 19.76L19.7876 24.3163C20.1049 24.597 20.5138 24.7522 20.9376 24.7525C21.1226 24.7521 21.3064 24.723 21.4826 24.6663C21.7713 24.5749 22.031 24.4094 22.2359 24.1864C22.4407 23.9633 22.5835 23.6905 22.6501 23.395L27.7276 1.32127C27.7632 1.16609 27.7559 1.00411 27.7064 0.852784C27.6568 0.701457 27.5669 0.566525 27.4463 0.462525ZM1.7563 11.6713C1.75151 11.6584 1.75151 11.6442 1.7563 11.6313C1.76195 11.6269 1.76829 11.6235 1.77505 11.6213L21.7388 3.80627L8.8263 13.0563L1.77505 11.6763L1.7563 11.6713ZM10.1801 22.1713C10.1456 22.207 10.1013 22.2317 10.0527 22.2422C10.0042 22.2526 9.95367 22.2484 9.90754 22.2301C9.86142 22.2117 9.82181 22.18 9.79376 22.139C9.76571 22.0981 9.75049 22.0497 9.75005 22V15.5138L13.4613 18.7638L10.1801 22.1713ZM21.1888 23.0563C21.1796 23.0985 21.1592 23.1375 21.1297 23.1692C21.1002 23.2009 21.0628 23.224 21.0213 23.2363C20.979 23.2511 20.9334 23.2543 20.8894 23.2455C20.8455 23.2367 20.8047 23.2163 20.7713 23.1863L10.2051 13.9175L25.8751 2.68752L21.1888 23.0563Z" fill="#DAD7B5"/>
</svg>
