<svg width="96" height="96" viewBox="0 0 96 96" fill="none" xmlns="http://www.w3.org/2000/svg">
<circle cx="48" cy="48" r="47" fill="black" stroke="#F1AE00" stroke-width="2"/>
<path d="M69.1225 42.7085C66.6878 41.3829 63.4153 40.4291 59.8125 39.9807V38.3751C59.8125 35.7238 57.7169 33.3219 53.9062 31.6091C50.4412 30.0472 45.8563 29.1876 41 29.1876C36.1438 29.1876 31.5588 30.0472 28.0938 31.6091C24.2831 33.3219 22.1875 35.7238 22.1875 38.3751V47.1251C22.1875 49.7763 24.2831 52.1782 28.0938 53.891C30.3884 54.9235 33.1709 55.641 36.1875 56.0194V57.6251C36.1875 60.2763 38.2831 62.6782 42.0938 64.391C45.5588 65.9529 50.1437 66.8126 55 66.8126C59.8563 66.8126 64.4412 65.9529 67.9062 64.391C71.7103 62.6782 73.8125 60.2763 73.8125 57.6251V48.8751C73.8125 46.5454 72.1478 44.3557 69.1225 42.7085ZM67.8669 45.0141C70.0084 46.1801 71.1875 47.5626 71.1875 48.8751C71.1875 51.9791 64.5397 55.4376 55 55.4376C53.4488 55.4385 51.8991 55.3406 50.3603 55.1444C51.573 54.8191 52.7585 54.4 53.9062 53.891C57.7103 52.1782 59.8125 49.7763 59.8125 47.1251V42.6254C62.9625 43.0476 65.7844 43.8788 67.8669 45.0141ZM43.66 53.5957C42.8025 53.6547 41.91 53.6876 41 53.6876C39.8406 53.6876 38.725 53.6351 37.6575 53.541C37.6306 53.5387 37.6035 53.5387 37.5766 53.541C36.7934 53.4688 36.0453 53.3726 35.3125 53.2566V47.1513C37.1957 47.4272 39.0967 47.5647 41 47.5626C42.9033 47.5647 44.8043 47.4272 46.6875 47.1513V53.2501C45.7381 53.401 44.7384 53.5169 43.6928 53.5913L43.66 53.5957ZM57.1875 43.1635V47.1251C57.1875 49.2119 54.1797 51.4563 49.3125 52.7054V46.6547C50.8888 46.2989 52.4272 45.792 53.9062 45.141C55.0828 44.6301 56.1862 43.9651 57.1875 43.1635ZM41 31.8126C50.5397 31.8126 57.1875 35.271 57.1875 38.3751C57.1875 41.4791 50.5397 44.9376 41 44.9376C31.4603 44.9376 24.8125 41.4791 24.8125 38.3751C24.8125 35.271 31.4603 31.8126 41 31.8126ZM24.8125 47.1251V43.1635C25.8143 43.962 26.9177 44.624 28.0938 45.1322C29.5728 45.7832 31.1112 46.2901 32.6875 46.646V52.6966C27.8203 51.4563 24.8125 49.2119 24.8125 47.1251ZM38.8125 57.6251V56.2513C39.5344 56.2907 40.2628 56.3126 41 56.3126C41.8619 56.3126 42.7121 56.2856 43.5506 56.2316C44.5766 56.6018 45.6242 56.9094 46.6875 57.1526V63.2054C41.8203 61.9563 38.8125 59.7119 38.8125 57.6251ZM49.3125 63.7501V57.6469C51.1956 57.9244 53.0966 58.0633 55 58.0626C56.9033 58.0647 58.8043 57.9272 60.6875 57.6513V63.7501C56.9183 64.3334 53.0817 64.3334 49.3125 63.7501ZM63.3125 63.2054V57.1548C64.8888 56.7989 66.4272 56.292 67.9062 55.641C69.0823 55.1328 70.1856 54.4708 71.1875 53.6722V57.6251C71.1875 59.7119 68.1797 61.9563 63.3125 63.2054Z" fill="#F1AE00"/>
</svg>
