<svg width="96" height="96" viewBox="0 0 96 96" fill="none" xmlns="http://www.w3.org/2000/svg">
<circle cx="48" cy="48" r="47" fill="black" stroke="#F1AE00" stroke-width="2"/>
<path d="M27.8925 29.4872C27.7501 29.6101 27.6357 29.7622 27.5572 29.9332C27.4787 30.1041 27.4379 30.29 27.4375 30.4781V67.25C27.4375 67.5981 27.5758 67.9319 27.8219 68.1781C28.0681 68.4242 28.4019 68.5625 28.75 68.5625C29.0981 68.5625 29.4319 68.4242 29.6781 68.1781C29.9242 67.9319 30.0625 67.5981 30.0625 67.25V57.3581C36.205 52.3728 41.4112 54.9519 47.4181 57.9203C50.9444 59.6703 54.7441 61.5472 58.7931 61.5472C61.7616 61.5472 64.8656 60.5409 68.1031 57.7366C68.2458 57.6145 68.3606 57.4633 68.4399 57.2931C68.5191 57.1229 68.5609 56.9377 68.5625 56.75V30.4781C68.5628 30.2264 68.4906 29.9799 68.3547 29.768C68.2187 29.5561 68.0247 29.3878 67.7957 29.2831C67.5668 29.1784 67.3126 29.1418 67.0634 29.1776C66.8142 29.2134 66.5805 29.3201 66.3903 29.485C60.0466 34.98 54.7353 32.3484 48.5819 29.3012C42.4809 26.2803 35.5312 22.8787 27.8925 29.4872ZM65.9375 56.1309C59.795 61.1184 54.5888 58.5372 48.5819 55.5666C43.0563 52.83 36.8634 49.7653 30.0625 54.125V31.095C36.205 26.1075 41.4112 28.6887 47.4181 31.655C52.9437 34.3916 59.1366 37.4562 65.9375 33.1053V56.1309Z" fill="#F1AE00"/>
</svg>
