<svg width="96" height="96" viewBox="0 0 96 96" fill="none" xmlns="http://www.w3.org/2000/svg">
<circle cx="48" cy="48" r="47" fill="black" stroke="#F1AE00" stroke-width="2"/>
<path d="M67.2501 43.1875H38.9613L65.8348 36.0934C66.0023 36.0493 66.1595 35.9724 66.2972 35.8672C66.4349 35.7619 66.5504 35.6305 66.6371 35.4804C66.7237 35.3303 66.7798 35.1646 66.802 34.9927C66.8242 34.8208 66.8122 34.6463 66.7666 34.4791L64.9816 27.9166C64.7658 27.1445 64.2545 26.4884 63.5585 26.0905C62.8625 25.6926 62.0378 25.5847 61.2629 25.7903L27.9451 34.5841C27.5573 34.6848 27.1935 34.8618 26.875 35.1048C26.5565 35.3478 26.2896 35.652 26.0901 35.9994C25.8914 36.3404 25.7628 36.7177 25.7117 37.1091C25.6607 37.5005 25.6881 37.8981 25.7926 38.2787L27.4376 44.3556V63.75C27.4376 64.5622 27.7602 65.3412 28.3346 65.9155C28.9089 66.4898 29.6879 66.8125 30.5001 66.8125H65.5001C66.3123 66.8125 67.0913 66.4898 67.6656 65.9155C68.2399 65.3412 68.5626 64.5622 68.5626 63.75V44.5C68.5626 44.1519 68.4243 43.8181 68.1782 43.5719C67.932 43.3258 67.5982 43.1875 67.2501 43.1875ZM47.5079 32.1363L54.7266 36.3078L45.4451 38.7578L38.2263 34.5862L47.5079 32.1363ZM61.9454 28.3278C62.0498 28.2989 62.1613 28.3114 62.2567 28.3627C62.3521 28.4141 62.424 28.5003 62.4573 28.6034L63.8945 33.8928L58.3382 35.3562L51.1194 31.1847L61.9454 28.3278ZM28.3629 37.3119C28.3899 37.2649 28.4262 37.2239 28.4694 37.1912C28.5126 37.1585 28.5619 37.1348 28.6145 37.1216L34.6257 35.5313L41.8444 39.705L29.7695 42.8987L28.3257 37.5897C28.3128 37.5433 28.3095 37.4947 28.3159 37.447C28.3222 37.3992 28.3382 37.3533 28.3629 37.3119ZM65.9376 63.75C65.9376 63.866 65.8915 63.9773 65.8094 64.0594C65.7274 64.1414 65.6161 64.1875 65.5001 64.1875H30.5001C30.384 64.1875 30.2728 64.1414 30.1907 64.0594C30.1087 63.9773 30.0626 63.866 30.0626 63.75V45.8125H65.9376V63.75Z" fill="#F1AE00"/>
</svg>
