<svg width="96" height="96" viewBox="0 0 96 96" fill="none" xmlns="http://www.w3.org/2000/svg">
<circle cx="48" cy="48" r="47" fill="black" stroke="#F1AE00" stroke-width="2"/>
<path d="M59.795 53.4688C59.3573 55.9144 58.1809 58.1673 56.4241 59.9241C54.6673 61.6809 52.4144 62.8573 49.9688 63.295C49.8963 63.3061 49.8232 63.3119 49.75 63.3125C49.42 63.3138 49.1016 63.1908 48.8583 62.9679C48.6149 62.745 48.4645 62.4386 48.4369 62.1097C48.4093 61.7809 48.5066 61.4537 48.7094 61.1934C48.9122 60.9331 49.2056 60.7587 49.5312 60.705C53.3331 60.0662 56.5597 56.8375 57.205 53.0312C57.263 52.6878 57.4551 52.3815 57.739 52.1796C57.8795 52.0797 58.0384 52.0084 58.2065 51.9699C58.3746 51.9313 58.5487 51.9263 58.7188 51.955C58.8888 51.9837 59.0515 52.0457 59.1977 52.1373C59.3438 52.2289 59.4704 52.3484 59.5704 52.489C59.6703 52.6295 59.7416 52.7884 59.7801 52.9565C59.8187 53.1246 59.8237 53.2987 59.795 53.4688ZM66.8125 51.5C66.8125 56.4894 64.8305 61.2744 61.3024 64.8024C57.7744 68.3305 52.9894 70.3125 48 70.3125C43.0106 70.3125 38.2256 68.3305 34.6976 64.8024C31.1695 61.2744 29.1875 56.4894 29.1875 51.5C29.1875 45.4909 31.5609 39.3353 36.2422 33.2037C36.3546 33.0544 36.4976 32.9308 36.6616 32.8412C36.8257 32.7516 37.007 32.6981 37.1933 32.6842C37.3797 32.6704 37.5669 32.6965 37.7424 32.7608C37.9179 32.8251 38.0777 32.9262 38.2109 33.0572L43.9728 38.6484L49.0237 24.7994C49.0958 24.6018 49.2144 24.4243 49.3693 24.2821C49.5243 24.1399 49.7112 24.037 49.9143 23.9821C50.1174 23.9272 50.3306 23.9219 50.5362 23.9667C50.7417 24.0115 50.9335 24.105 51.0953 24.2394C55.8137 28.1659 66.8125 38.6813 66.8125 51.5ZM64.1875 51.5C64.1875 40.9125 55.7328 31.8475 50.8284 27.4812L45.7337 41.4506C45.6588 41.6565 45.5335 41.8404 45.3693 41.9854C45.2051 42.1304 45.0071 42.2321 44.7936 42.281C44.58 42.3299 44.3576 42.3246 44.1466 42.2656C43.9356 42.2065 43.7427 42.0955 43.5856 41.9428L37.4606 35.9884C33.7091 41.2472 31.8125 46.4688 31.8125 51.5C31.8125 55.7932 33.518 59.9105 36.5537 62.9463C39.5895 65.982 43.7068 67.6875 48 67.6875C52.2932 67.6875 56.4105 65.982 59.4463 62.9463C62.482 59.9105 64.1875 55.7932 64.1875 51.5Z" fill="#F1AE00"/>
</svg>
