<svg width="96" height="96" viewBox="0 0 96 96" fill="none" xmlns="http://www.w3.org/2000/svg">
<circle cx="48" cy="48" r="47" fill="black" stroke="#F1AE00" stroke-width="2"/>
<path d="M70.3125 65.5C70.3125 65.8481 70.1742 66.1819 69.9281 66.4281C69.6819 66.6742 69.3481 66.8125 69 66.8125H27C26.6519 66.8125 26.3181 66.6742 26.0719 66.4281C25.8258 66.1819 25.6875 65.8481 25.6875 65.5V30.5C25.6875 30.1519 25.8258 29.8181 26.0719 29.5719C26.3181 29.3258 26.6519 29.1875 27 29.1875C27.3481 29.1875 27.6819 29.3258 27.9281 29.5719C28.1742 29.8181 28.3125 30.1519 28.3125 30.5V55.3325L40.0725 43.5725C40.3186 43.3267 40.6522 43.1887 41 43.1887C41.3478 43.1887 41.6814 43.3267 41.9275 43.5725L48 49.6428L60.5825 37.0625H55C54.6519 37.0625 54.3181 36.9242 54.0719 36.6781C53.8258 36.4319 53.6875 36.0981 53.6875 35.75C53.6875 35.4019 53.8258 35.0681 54.0719 34.8219C54.3181 34.5758 54.6519 34.4375 55 34.4375H63.75C64.0981 34.4375 64.4319 34.5758 64.6781 34.8219C64.9242 35.0681 65.0625 35.4019 65.0625 35.75V44.5C65.0625 44.8481 64.9242 45.1819 64.6781 45.4281C64.4319 45.6742 64.0981 45.8125 63.75 45.8125C63.4019 45.8125 63.0681 45.6742 62.8219 45.4281C62.5758 45.1819 62.4375 44.8481 62.4375 44.5V38.9175L48.9275 52.4275C48.6814 52.6733 48.3478 52.8113 48 52.8113C47.6522 52.8113 47.3186 52.6733 47.0725 52.4275L41 46.3572L28.3125 59.0447V64.1875H69C69.3481 64.1875 69.6819 64.3258 69.9281 64.5719C70.1742 64.8181 70.3125 65.1519 70.3125 65.5Z" fill="#F1AE00"/>
</svg>
