<svg width="96" height="96" viewBox="0 0 96 96" fill="none" xmlns="http://www.w3.org/2000/svg">
<circle cx="48" cy="48" r="47" fill="black" stroke="#F1AE00" stroke-width="2"/>
<path d="M72.5 65.9375H68.5625V41C68.5625 40.1878 68.2398 39.4088 67.6655 38.8345C67.0912 38.2601 66.3122 37.9375 65.5 37.9375H51.0625V27C51.0623 26.4457 50.9116 25.9019 50.6266 25.4265C50.3415 24.9511 49.9328 24.5619 49.444 24.3006C48.9552 24.0392 48.4046 23.9154 47.851 23.9424C47.2973 23.9694 46.7614 24.1461 46.3003 24.4537L28.8003 36.1197C28.3809 36.3995 28.0371 36.7785 27.7994 37.223C27.5617 37.6676 27.4374 38.164 27.4375 38.6681V65.9375H23.5C23.1519 65.9375 22.8181 66.0758 22.5719 66.3219C22.3258 66.5681 22.1875 66.9019 22.1875 67.25C22.1875 67.5981 22.3258 67.9319 22.5719 68.1781C22.8181 68.4242 23.1519 68.5625 23.5 68.5625H72.5C72.8481 68.5625 73.1819 68.4242 73.4281 68.1781C73.6742 67.9319 73.8125 67.5981 73.8125 67.25C73.8125 66.9019 73.6742 66.5681 73.4281 66.3219C73.1819 66.0758 72.8481 65.9375 72.5 65.9375ZM65.5 40.5625C65.616 40.5625 65.7273 40.6086 65.8094 40.6906C65.8914 40.7727 65.9375 40.884 65.9375 41V65.9375H51.0625V40.5625H65.5ZM30.0625 38.6681C30.0626 38.5963 30.0805 38.5255 30.1144 38.4622C30.1484 38.3989 30.1974 38.3449 30.2572 38.305L47.7572 26.6369C47.823 26.5929 47.8995 26.5677 47.9786 26.5638C48.0576 26.5599 48.1362 26.5776 48.206 26.6148C48.2758 26.6521 48.3342 26.7076 48.375 26.7754C48.4157 26.8432 48.4374 26.9209 48.4375 27V65.9375H30.0625V38.6681ZM44.0625 44.5V48C44.0625 48.3481 43.9242 48.6819 43.6781 48.9281C43.4319 49.1742 43.0981 49.3125 42.75 49.3125C42.4019 49.3125 42.0681 49.1742 41.8219 48.9281C41.5758 48.6819 41.4375 48.3481 41.4375 48V44.5C41.4375 44.1519 41.5758 43.8181 41.8219 43.5719C42.0681 43.3258 42.4019 43.1875 42.75 43.1875C43.0981 43.1875 43.4319 43.3258 43.6781 43.5719C43.9242 43.8181 44.0625 44.1519 44.0625 44.5ZM37.0625 44.5V48C37.0625 48.3481 36.9242 48.6819 36.6781 48.9281C36.4319 49.1742 36.0981 49.3125 35.75 49.3125C35.4019 49.3125 35.0681 49.1742 34.8219 48.9281C34.5758 48.6819 34.4375 48.3481 34.4375 48V44.5C34.4375 44.1519 34.5758 43.8181 34.8219 43.5719C35.0681 43.3258 35.4019 43.1875 35.75 43.1875C36.0981 43.1875 36.4319 43.3258 36.6781 43.5719C36.9242 43.8181 37.0625 44.1519 37.0625 44.5ZM37.0625 56.75V60.25C37.0625 60.5981 36.9242 60.9319 36.6781 61.1781C36.4319 61.4242 36.0981 61.5625 35.75 61.5625C35.4019 61.5625 35.0681 61.4242 34.8219 61.1781C34.5758 60.9319 34.4375 60.5981 34.4375 60.25V56.75C34.4375 56.4019 34.5758 56.0681 34.8219 55.8219C35.0681 55.5758 35.4019 55.4375 35.75 55.4375C36.0981 55.4375 36.4319 55.5758 36.6781 55.8219C36.9242 56.0681 37.0625 56.4019 37.0625 56.75ZM44.0625 56.75V60.25C44.0625 60.5981 43.9242 60.9319 43.6781 61.1781C43.4319 61.4242 43.0981 61.5625 42.75 61.5625C42.4019 61.5625 42.0681 61.4242 41.8219 61.1781C41.5758 60.9319 41.4375 60.5981 41.4375 60.25V56.75C41.4375 56.4019 41.5758 56.0681 41.8219 55.8219C42.0681 55.5758 42.4019 55.4375 42.75 55.4375C43.0981 55.4375 43.4319 55.5758 43.6781 55.8219C43.9242 56.0681 44.0625 56.4019 44.0625 56.75Z" fill="#F1AE00"/>
</svg>
