<svg width="96" height="96" viewBox="0 0 96 96" fill="none" xmlns="http://www.w3.org/2000/svg">
<circle cx="48" cy="48" r="47" fill="black" stroke="#F1AE00" stroke-width="2"/>
<path d="M73.8125 48C73.8121 50.3361 73.1192 52.6196 71.8212 54.5618C70.5232 56.5041 68.6784 58.0179 66.5202 58.9118C64.3619 59.8057 61.9871 60.0396 59.6959 59.584C57.4047 59.1283 55.3001 58.0036 53.6481 56.3519C53.6288 56.334 53.6105 56.315 53.5934 56.295L40.4684 41.4769C39.1805 40.1995 37.5434 39.332 35.7632 38.9836C33.9831 38.6352 32.1396 38.8215 30.4652 39.5191C28.7908 40.2167 27.3604 41.3943 26.3542 42.9035C25.348 44.4128 24.811 46.1861 24.811 48C24.811 49.8139 25.348 51.5872 26.3542 53.0965C27.3604 54.6057 28.7908 55.7833 30.4652 56.4809C32.1396 57.1785 33.9831 57.3648 35.7632 57.0164C37.5434 56.668 39.1805 55.8005 40.4684 54.5231L42.3431 52.4078C42.458 52.2785 42.5972 52.1732 42.7529 52.0977C42.9085 52.0223 43.0775 51.9782 43.2501 51.968C43.4228 51.9579 43.5957 51.9818 43.7591 52.0385C43.9226 52.0952 44.0732 52.1835 44.2025 52.2984C44.3317 52.4133 44.4371 52.5526 44.5126 52.7082C44.588 52.8638 44.6321 53.0328 44.6422 53.2055C44.6524 53.3781 44.6284 53.5511 44.5717 53.7145C44.5151 53.8779 44.4267 54.0285 44.3118 54.1578L42.4109 56.3038C42.3938 56.3238 42.3755 56.3428 42.3562 56.3606C40.7043 58.0129 38.5995 59.1381 36.308 59.5941C34.0166 60.0501 31.6414 59.8163 29.4828 58.9223C27.3242 58.0283 25.4792 56.5143 24.1811 54.5717C22.883 52.6291 22.1902 50.3451 22.1902 48.0088C22.1902 45.6724 22.883 43.3884 24.1811 41.4458C25.4792 39.5032 27.3242 37.9892 29.4828 37.0952C31.6414 36.2012 34.0166 35.9674 36.308 36.4234C38.5995 36.8794 40.7043 38.0046 42.3562 39.6569C42.3755 39.6748 42.3938 39.6937 42.4109 39.7138L55.5359 54.5319C56.8238 55.8092 58.4609 56.6768 60.2411 57.0252C62.0212 57.3736 63.8646 57.1873 65.539 56.4897C67.2134 55.7921 68.6439 54.6145 69.6501 53.1052C70.6563 51.596 71.1932 49.8227 71.1932 48.0088C71.1932 46.1948 70.6563 44.4215 69.6501 42.9123C68.6439 41.403 67.2134 40.2254 65.539 39.5278C63.8646 38.8303 62.0212 38.6439 60.2411 38.9923C58.4609 39.3407 56.8238 40.2083 55.5359 41.4856L53.6612 43.6009C53.5463 43.7302 53.4071 43.8356 53.2514 43.911C53.0958 43.9865 52.9268 44.0306 52.7542 44.0407C52.5815 44.0509 52.4085 44.0269 52.2451 43.9702C52.0817 43.9135 51.9311 43.8252 51.8018 43.7103C51.6726 43.5954 51.5672 43.4562 51.4917 43.3005C51.4163 43.1449 51.3722 42.9759 51.3621 42.8033C51.3519 42.6306 51.3758 42.4577 51.4325 42.2943C51.4892 42.1308 51.5776 41.9802 51.6925 41.8509L53.5934 39.705C53.6105 39.685 53.6288 39.666 53.6481 39.6481C55.3001 37.9965 57.4047 36.8717 59.6959 36.416C61.9871 35.9604 64.3619 36.1943 66.5202 37.0882C68.6784 37.9822 70.5232 39.4959 71.8212 41.4382C73.1192 43.3804 73.8121 45.664 73.8125 48Z" fill="#F1AE00"/>
</svg>
