<svg width="107" height="107" viewBox="0 0 107 107" fill="none" xmlns="http://www.w3.org/2000/svg">
<path d="M104.604 53.5C104.604 81.7242 81.7242 104.604 53.5 104.604C25.2758 104.604 2.39551 81.7242 2.39551 53.5C2.39551 25.2758 25.2758 2.39551 53.5 2.39551C81.7242 2.39551 104.604 25.2758 104.604 53.5Z" fill="black"/>
<path fill-rule="evenodd" clip-rule="evenodd" d="M53.5 4.79104C26.5988 4.79104 4.79104 26.5988 4.79104 53.5C4.79104 80.4012 26.5988 102.209 53.5 102.209C80.4012 102.209 102.209 80.4012 102.209 53.5C102.209 26.5988 80.4012 4.79104 53.5 4.79104ZM0 53.5C0 23.9528 23.9528 0 53.5 0C83.0472 0 107 23.9528 107 53.5C107 83.0472 83.0472 107 53.5 107C23.9528 107 0 83.0472 0 53.5Z" fill="#F1BD00"/>
<path fill-rule="evenodd" clip-rule="evenodd" d="M29.4745 24.6036C39.0823 26.7361 59.6561 29.1978 77.7656 24.6222C78.638 24.4018 79.5638 24.7676 79.9283 25.5902C81.0747 28.1771 82.2875 32.6184 82.6584 38.7336C81.8329 34.172 76.4502 30.6504 69.933 30.6504C63.443 30.6504 58.0781 34.1426 57.2182 38.6765C57.2184 38.6751 57.2185 38.6737 57.2187 38.6724H49.9175C49.0551 34.1405 43.6914 30.6504 37.2034 30.6504C30.6588 30.6504 25.2582 34.2017 24.4679 38.7914C24.7493 34.2385 25.5797 29.7326 27.2358 25.7181C27.5971 24.8425 28.5497 24.3984 29.4745 24.6036ZM24.3882 40.4785C24.375 40.3055 24.3683 40.1313 24.3683 39.9559C24.3683 39.5615 24.4022 39.1728 24.4679 38.7914C24.4331 39.3533 24.4067 39.916 24.3882 40.4785ZM24.3882 40.4785C24.0599 50.4495 26.1956 60.383 27.898 65.6261C37.1392 89.2427 50.7873 92.3659 56.4561 90.9755C62.5528 89.3711 75.9013 81.1566 80.5219 61.1338C82.3786 53.0884 82.9159 46.1896 82.7416 40.5583C82.7592 40.3591 82.7681 40.1583 82.7681 39.9559C82.7681 39.5416 82.7308 39.1336 82.6584 38.7336C82.6943 39.3262 82.7223 39.9345 82.7416 40.5583C82.3134 45.4168 76.7425 49.2613 69.933 49.2613C63.7548 49.2613 58.5961 46.0966 57.3729 41.8811H57.3776C57.0983 40.9199 57.0979 39.6387 57.2182 38.6765C57.1389 39.0947 57.0979 39.5218 57.0979 39.9559C57.0979 40.6159 57.1927 41.26 57.3729 41.8811H49.7635C48.5403 46.0966 43.3816 49.2613 37.2034 49.2613C30.3567 49.2613 24.7621 45.3747 24.3882 40.4785ZM55.8144 57.2833C54.2839 58.8138 52.2042 57.9363 51.3384 57.2955C51.3272 57.2872 51.3177 57.2783 51.3085 57.2679C50.5524 56.4142 48.8131 55.3077 47.7924 57.6042C46.785 59.8709 47.7543 61.2933 48.3974 61.7503C48.4217 61.7675 48.45 61.7778 48.4795 61.7821C51.7045 62.2498 53.6109 63.2683 54.3395 63.8526C54.4408 63.9338 54.5959 63.914 54.6771 63.8126C55.5809 62.6845 58.0108 62.0107 59.254 61.7911C59.3116 61.7809 59.3616 61.7476 59.3887 61.6958C59.7034 61.0951 60.0789 59.564 59.344 57.6042C58.5739 55.5506 56.67 56.5346 55.8144 57.2833ZM47.4715 70.4393C45.4863 71.9282 43.3411 71.538 42.4274 71.1238C42.3702 71.0979 42.304 71.0971 42.249 71.1275C41.3466 71.6276 41.9226 72.1571 42.3375 72.3645C43.621 73.2202 47.7282 74.9316 53.8891 74.9316C58.2528 74.9316 61.5863 73.6437 63.6158 72.4363C63.8254 72.3116 63.549 71.7717 63.3051 71.7739C61.3846 71.7918 59.5601 70.4125 58.7023 69.4766C57.9536 68.7279 56.1352 67.5514 54.8517 68.8349C53.6251 70.0615 52.4962 69.2367 52.0251 68.601C51.9853 68.5474 51.9245 68.5134 51.8578 68.517C51.1398 68.5559 49.4214 68.9769 47.4715 70.4393ZM49.292 77.5428C48.734 77.7897 47.7924 78.3804 47.7924 79.103C47.7924 79.8565 48.8165 80.4667 49.3616 80.693C49.385 80.7027 49.4096 80.7074 49.435 80.7074H51.3221H54.838C54.8474 80.7074 54.8561 80.708 54.8654 80.7093C56.3673 80.9219 59.344 81.0243 59.344 79.7447C59.344 78.5401 58.4018 77.8065 57.8439 77.5441C57.78 77.514 57.7065 77.5244 57.6496 77.5661C56.2118 78.619 52.7302 79.9861 49.4886 77.5681C49.432 77.5259 49.3565 77.5143 49.292 77.5428Z" fill="#F1BD00"/>
<path d="M53.2474 71.7228C50.0071 71.7228 48.9579 72.4184 48.7829 72.8688C48.7522 72.9477 48.809 73.0255 48.8891 73.0528C52.9549 74.438 56.9416 73.5457 58.7188 72.8182C58.8583 72.761 58.8714 72.5847 58.735 72.5205C58.0206 72.1846 56.2959 71.7228 53.2474 71.7228Z" fill="#F1BD00"/>
<path d="M42.0481 43.0676C45.0451 41.203 42.9916 39.5528 41.232 38.7909C41.0623 38.7174 40.9014 38.9042 40.9736 39.0745C41.556 40.4481 40.7039 40.8272 40.1234 40.8406C40.102 40.8411 40.0804 40.8446 40.0601 40.8516C38.6632 41.3377 38.5973 42.7533 38.764 43.5506C38.7853 43.6524 38.8863 43.7132 38.9883 43.6928L41.9815 43.0942C42.0047 43.0895 42.0281 43.0801 42.0481 43.0676Z" fill="#F1BD00"/>
<path d="M37.8451 39.5575C37.8451 41.0344 36.2716 41.0558 35.3878 40.8664C35.3192 40.8517 35.2468 40.8711 35.2004 40.9237C34.4077 41.8222 35.094 42.9219 35.6952 43.523C35.797 43.6248 35.7749 43.7997 35.6396 43.849C34.7136 44.1864 33.1737 44.2066 32.7111 42.1245C32.2001 39.8252 34.1893 38.8184 35.2627 38.598C35.2732 38.5958 35.2828 38.5931 35.2929 38.5893C36.1534 38.2711 37.8451 38.0261 37.8451 39.5575Z" fill="#F1BD00"/>
<path d="M72.9348 43.0676C75.9318 41.203 73.8783 39.5528 72.1188 38.7909C71.949 38.7174 71.7881 38.9042 71.8603 39.0745C72.4427 40.4481 71.5906 40.8272 71.0101 40.8406C70.9887 40.8411 70.9671 40.8446 70.9468 40.8516C69.5499 41.3377 69.4841 42.7533 69.6507 43.5506C69.672 43.6524 69.773 43.7132 69.875 43.6928L72.8682 43.0942C72.8914 43.0895 72.9148 43.0801 72.9348 43.0676Z" fill="#F1BD00"/>
<path d="M68.7318 39.5575C68.7318 41.0344 67.1583 41.0558 66.2745 40.8664C66.2059 40.8517 66.1335 40.8711 66.0871 40.9237C65.2945 41.8222 65.9807 42.9219 66.5819 43.523C66.6837 43.6248 66.6616 43.7997 66.5264 43.849C65.6003 44.1864 64.0605 44.2066 63.5978 42.1245C63.0868 39.8252 65.076 38.8184 66.1494 38.598C66.1599 38.5958 66.1696 38.5931 66.1796 38.5893C67.0401 38.2711 68.7318 38.0261 68.7318 39.5575Z" fill="#F1BD00"/>
</svg>
