<svg width="1030" height="667" viewBox="0 0 1030 667" fill="none" xmlns="http://www.w3.org/2000/svg">
<path d="M3.5 96.5H805C860.228 96.5 905 142.022 905 197.25V197.25C905 252.478 860.228 298 805 298H306C211.835 298 135.5 374.335 135.5 468.5V468.5C135.5 562.665 211.835 639 306 639H1030" stroke="#F1AE00" stroke-width="2"/>
<path d="M0.5 29H807.5C895.866 29 967.5 100.634 967.5 189V203.5C967.5 291.866 895.866 363.5 807.5 363.5H309C252.667 363.5 207 409.417 207 465.75V465.75C207 522.083 252.667 568 309 568H1030" stroke="#F1AE00" stroke-width="2"/>
<path d="M35.5 64.5H806.75C880.894 64.5 941 124.606 941 198.75V198.75C941 272.894 880.894 333 806.75 333H307.5C231.837 333 170.5 394.337 170.5 470V470C170.5 545.663 231.837 607 307.5 607H995" stroke="#F1AE00" stroke-width="2" stroke-dasharray="16 16"/>
<circle cx="239" cy="60" r="59" fill="black" stroke="#F1AE00" stroke-width="2"/>
<path d="M266.158 53.1966C263.027 51.4922 258.82 50.2659 254.188 49.6894V47.625C254.188 44.2163 251.493 41.1281 246.594 38.9259C242.139 36.9178 236.244 35.8125 230 35.8125C223.756 35.8125 217.861 36.9178 213.406 38.9259C208.507 41.1281 205.812 44.2163 205.812 47.625V58.875C205.812 62.2838 208.507 65.3719 213.406 67.5741C216.357 68.9016 219.934 69.8241 223.812 70.3106V72.375C223.812 75.7837 226.507 78.8719 231.406 81.0741C235.861 83.0822 241.756 84.1875 248 84.1875C254.244 84.1875 260.139 83.0822 264.594 81.0741C269.485 78.8719 272.188 75.7837 272.188 72.375V61.125C272.188 58.1297 270.047 55.3144 266.158 53.1966ZM264.543 56.1609C267.297 57.66 268.812 59.4375 268.812 61.125C268.812 65.1159 260.265 69.5625 248 69.5625C246.006 69.5637 244.013 69.4379 242.035 69.1856C243.594 68.7673 245.118 68.2285 246.594 67.5741C251.485 65.3719 254.188 62.2838 254.188 58.875V53.0897C258.237 53.6325 261.866 54.7013 264.543 56.1609ZM233.42 67.1944C232.318 67.2703 231.17 67.3125 230 67.3125C228.509 67.3125 227.075 67.245 225.702 67.1241C225.668 67.1212 225.633 67.1212 225.598 67.1241C224.592 67.0312 223.63 66.9075 222.688 66.7584V58.9088C225.109 59.2635 227.553 59.4402 230 59.4375C232.447 59.4402 234.891 59.2635 237.312 58.9088V66.75C236.092 66.9441 234.807 67.0931 233.462 67.1887L233.42 67.1944ZM250.812 53.7816V58.875C250.812 61.5581 246.945 64.4437 240.688 66.0497V58.2703C242.714 57.8128 244.692 57.161 246.594 56.3241C248.106 55.6671 249.525 54.8122 250.812 53.7816ZM230 39.1875C242.265 39.1875 250.812 43.6341 250.812 47.625C250.812 51.6159 242.265 56.0625 230 56.0625C217.735 56.0625 209.188 51.6159 209.188 47.625C209.188 43.6341 217.735 39.1875 230 39.1875ZM209.188 58.875V53.7816C210.476 54.8082 211.894 55.6594 213.406 56.3128C215.308 57.1498 217.286 57.8015 219.312 58.2591V66.0384C213.055 64.4438 209.188 61.5581 209.188 58.875ZM227.188 72.375V70.6087C228.116 70.6594 229.052 70.6875 230 70.6875C231.108 70.6875 232.201 70.6528 233.279 70.5834C234.599 71.0594 235.945 71.4548 237.312 71.7675V79.5497C231.055 77.9437 227.188 75.0581 227.188 72.375ZM240.688 80.25V72.4031C243.109 72.7599 245.553 72.9385 248 72.9375C250.447 72.9402 252.891 72.7635 255.312 72.4087V80.25C250.466 81 245.534 81 240.688 80.25ZM258.688 79.5497V71.7703C260.714 71.3128 262.692 70.661 264.594 69.8241C266.106 69.1706 267.524 68.3195 268.812 67.2928V72.375C268.812 75.0581 264.945 77.9437 258.688 79.5497Z" fill="#F1AE00"/>
<circle cx="622" cy="60" r="59" fill="black" stroke="#F1AE00" stroke-width="2"/>
<path d="M596.148 36.1978C595.964 36.3558 595.817 36.5514 595.716 36.7712C595.615 36.991 595.563 37.23 595.562 37.4719V84.75C595.562 85.1975 595.74 85.6268 596.057 85.9432C596.373 86.2597 596.802 86.4375 597.25 86.4375C597.698 86.4375 598.127 86.2597 598.443 85.9432C598.76 85.6268 598.938 85.1975 598.938 84.75V72.0319C606.835 65.6222 613.529 68.9381 621.252 72.7547C625.786 75.0047 630.671 77.4178 635.877 77.4178C639.693 77.4178 643.684 76.1241 647.847 72.5184C648.03 72.3615 648.178 72.1671 648.28 71.9483C648.382 71.7295 648.435 71.4914 648.438 71.25V37.4719C648.438 37.1482 648.345 36.8312 648.17 36.5588C647.995 36.2864 647.746 36.07 647.452 35.9354C647.157 35.8008 646.83 35.7537 646.51 35.7998C646.19 35.8458 645.889 35.983 645.645 36.195C637.488 43.26 630.66 39.8766 622.748 35.9587C614.904 32.0747 605.969 27.7012 596.148 36.1978ZM645.062 70.4541C637.165 76.8666 630.471 73.5478 622.748 69.7284C615.644 66.21 607.682 62.2697 598.938 67.875V38.265C606.835 31.8525 613.529 35.1712 621.252 38.985C628.356 42.5034 636.318 46.4437 645.062 40.8497V70.4541Z" fill="#F1AE00"/>
<circle cx="935" cy="197" r="59" fill="black" stroke="#F1AE00" stroke-width="2"/>
<path d="M959.75 190.813H923.379L957.93 181.692C958.146 181.635 958.348 181.536 958.525 181.401C958.702 181.265 958.85 181.096 958.962 180.903C959.073 180.71 959.145 180.497 959.174 180.276C959.202 180.055 959.187 179.831 959.128 179.616L956.833 171.178C956.556 170.186 955.898 169.342 955.004 168.831C954.109 168.319 953.048 168.18 952.052 168.445L909.215 179.751C908.716 179.88 908.249 180.108 907.839 180.42C907.43 180.733 907.086 181.124 906.83 181.571C906.575 182.009 906.409 182.494 906.343 182.997C906.278 183.501 906.313 184.012 906.447 184.501L908.562 192.314V217.25C908.562 218.294 908.977 219.296 909.716 220.034C910.454 220.773 911.456 221.188 912.5 221.188H957.5C958.544 221.188 959.546 220.773 960.284 220.034C961.023 219.296 961.437 218.294 961.437 217.25V192.5C961.437 192.052 961.26 191.623 960.943 191.307C960.627 190.99 960.197 190.813 959.75 190.813ZM934.367 176.604L943.648 181.967L931.715 185.117L922.434 179.754L934.367 176.604ZM952.93 171.707C953.064 171.67 953.207 171.686 953.33 171.752C953.453 171.818 953.545 171.929 953.588 172.062L955.436 178.862L948.292 180.744L939.011 175.38L952.93 171.707ZM909.752 183.258C909.787 183.198 909.833 183.145 909.889 183.103C909.945 183.061 910.008 183.03 910.076 183.013L917.804 180.969L927.086 186.335L911.561 190.441L909.704 183.615C909.688 183.556 909.683 183.493 909.692 183.432C909.7 183.37 909.72 183.311 909.752 183.258ZM958.062 217.25C958.062 217.399 958.003 217.542 957.898 217.648C957.792 217.753 957.649 217.813 957.5 217.813H912.5C912.351 217.813 912.208 217.753 912.102 217.648C911.997 217.542 911.937 217.399 911.937 217.25V194.188H958.062V217.25Z" fill="#F1AE00"/>
<circle cx="530" cy="336" r="59" fill="black" stroke="#F1AE00" stroke-width="2"/>
<path d="M545.165 343.031C544.602 346.176 543.09 349.072 540.831 351.331C538.572 353.59 535.676 355.102 532.531 355.665C532.438 355.679 532.344 355.687 532.25 355.687C531.826 355.689 531.416 355.531 531.104 355.244C530.791 354.958 530.597 354.564 530.562 354.141C530.526 353.718 530.651 353.298 530.912 352.963C531.173 352.628 531.55 352.404 531.969 352.335C536.857 351.514 541.005 347.362 541.835 342.469C541.91 342.027 542.157 341.633 542.522 341.374C542.702 341.245 542.907 341.154 543.123 341.104C543.339 341.055 543.563 341.048 543.781 341.085C544 341.122 544.209 341.202 544.397 341.319C544.585 341.437 544.748 341.591 544.876 341.772C545.005 341.952 545.096 342.157 545.146 342.373C545.195 342.589 545.202 342.813 545.165 343.031ZM554.188 340.5C554.188 346.915 551.639 353.067 547.103 357.603C542.567 362.139 536.415 364.687 530 364.687C523.585 364.687 517.433 362.139 512.897 357.603C508.361 353.067 505.812 346.915 505.812 340.5C505.812 332.774 508.864 324.86 514.883 316.976C515.027 316.784 515.211 316.625 515.422 316.51C515.633 316.395 515.866 316.326 516.106 316.308C516.345 316.29 516.586 316.324 516.812 316.407C517.037 316.489 517.243 316.619 517.414 316.788L524.822 323.977L531.316 306.171C531.409 305.917 531.561 305.688 531.761 305.506C531.96 305.323 532.2 305.19 532.461 305.12C532.722 305.049 532.997 305.042 533.261 305.1C533.525 305.158 533.772 305.278 533.98 305.451C540.046 310.499 554.188 324.019 554.188 340.5ZM550.812 340.5C550.812 326.887 539.942 315.232 533.637 309.619L527.086 327.579C526.99 327.844 526.829 328.08 526.618 328.267C526.406 328.453 526.152 328.584 525.877 328.647C525.603 328.71 525.317 328.703 525.046 328.627C524.774 328.551 524.526 328.409 524.324 328.212L516.449 320.557C511.626 327.318 509.188 334.031 509.188 340.5C509.188 346.02 511.38 351.314 515.283 355.217C519.186 359.12 524.48 361.312 530 361.312C535.52 361.312 540.814 359.12 544.717 355.217C548.62 351.314 550.812 346.02 550.812 340.5Z" fill="#F1AE00"/>
<circle cx="170" cy="466" r="59" fill="black" stroke="#F1AE00" stroke-width="2"/>
<path d="M198.688 488.5C198.688 488.948 198.51 489.377 198.193 489.693C197.877 490.01 197.448 490.188 197 490.188H143C142.552 490.188 142.123 490.01 141.807 489.693C141.49 489.377 141.312 488.948 141.312 488.5V443.5C141.312 443.052 141.49 442.623 141.807 442.307C142.123 441.99 142.552 441.812 143 441.812C143.448 441.812 143.877 441.99 144.193 442.307C144.51 442.623 144.688 443.052 144.688 443.5V475.428L159.808 460.308C160.124 459.991 160.553 459.814 161 459.814C161.447 459.814 161.876 459.991 162.192 460.308L170 468.112L186.178 451.938H179C178.552 451.938 178.123 451.76 177.807 451.443C177.49 451.127 177.312 450.698 177.312 450.25C177.312 449.802 177.49 449.373 177.807 449.057C178.123 448.74 178.552 448.562 179 448.562H190.25C190.698 448.562 191.127 448.74 191.443 449.057C191.76 449.373 191.938 449.802 191.938 450.25V461.5C191.938 461.948 191.76 462.377 191.443 462.693C191.127 463.01 190.698 463.188 190.25 463.188C189.802 463.188 189.373 463.01 189.057 462.693C188.74 462.377 188.562 461.948 188.562 461.5V454.323L171.193 471.693C170.876 472.009 170.447 472.186 170 472.186C169.553 472.186 169.124 472.009 168.808 471.693L161 463.888L144.688 480.2V486.812H197C197.448 486.812 197.877 486.99 198.193 487.307C198.51 487.623 198.688 488.052 198.688 488.5Z" fill="#F1AE00"/>
<circle cx="427" cy="607" r="59" fill="black" stroke="#F1AE00" stroke-width="2"/>
<path d="M458.5 630.063H453.438V598C453.438 596.956 453.023 595.954 452.284 595.216C451.546 594.477 450.544 594.063 449.5 594.063H430.938V580C430.937 579.287 430.743 578.588 430.377 577.977C430.011 577.366 429.485 576.865 428.857 576.529C428.228 576.193 427.52 576.034 426.808 576.069C426.097 576.104 425.408 576.331 424.815 576.726L402.315 591.725C401.776 592.085 401.333 592.572 401.028 593.144C400.722 593.716 400.562 594.354 400.562 595.002V630.063H395.5C395.052 630.063 394.623 630.24 394.307 630.557C393.99 630.873 393.812 631.302 393.812 631.75C393.812 632.198 393.99 632.627 394.307 632.943C394.623 633.26 395.052 633.438 395.5 633.438H458.5C458.948 633.438 459.377 633.26 459.693 632.943C460.01 632.627 460.188 632.198 460.188 631.75C460.188 631.302 460.01 630.873 459.693 630.557C459.377 630.24 458.948 630.063 458.5 630.063ZM449.5 597.438C449.649 597.438 449.792 597.497 449.898 597.602C450.003 597.708 450.062 597.851 450.062 598V630.063H430.938V597.438H449.5ZM403.938 595.002C403.938 594.909 403.961 594.819 404.004 594.737C404.048 594.656 404.111 594.586 404.188 594.535L426.688 579.533C426.772 579.477 426.871 579.444 426.972 579.439C427.074 579.434 427.175 579.457 427.265 579.505C427.355 579.553 427.43 579.624 427.482 579.711C427.535 579.798 427.562 579.898 427.562 580V630.063H403.938V595.002ZM421.938 602.5V607C421.938 607.448 421.76 607.877 421.443 608.193C421.127 608.51 420.698 608.688 420.25 608.688C419.802 608.688 419.373 608.51 419.057 608.193C418.74 607.877 418.562 607.448 418.562 607V602.5C418.562 602.052 418.74 601.623 419.057 601.307C419.373 600.99 419.802 600.813 420.25 600.813C420.698 600.813 421.127 600.99 421.443 601.307C421.76 601.623 421.938 602.052 421.938 602.5ZM412.938 602.5V607C412.938 607.448 412.76 607.877 412.443 608.193C412.127 608.51 411.698 608.688 411.25 608.688C410.802 608.688 410.373 608.51 410.057 608.193C409.74 607.877 409.562 607.448 409.562 607V602.5C409.562 602.052 409.74 601.623 410.057 601.307C410.373 600.99 410.802 600.813 411.25 600.813C411.698 600.813 412.127 600.99 412.443 601.307C412.76 601.623 412.938 602.052 412.938 602.5ZM412.938 618.25V622.75C412.938 623.198 412.76 623.627 412.443 623.943C412.127 624.26 411.698 624.438 411.25 624.438C410.802 624.438 410.373 624.26 410.057 623.943C409.74 623.627 409.562 623.198 409.562 622.75V618.25C409.562 617.802 409.74 617.373 410.057 617.057C410.373 616.74 410.802 616.563 411.25 616.563C411.698 616.563 412.127 616.74 412.443 617.057C412.76 617.373 412.938 617.802 412.938 618.25ZM421.938 618.25V622.75C421.938 623.198 421.76 623.627 421.443 623.943C421.127 624.26 420.698 624.438 420.25 624.438C419.802 624.438 419.373 624.26 419.057 623.943C418.74 623.627 418.562 623.198 418.562 622.75V618.25C418.562 617.802 418.74 617.373 419.057 617.057C419.373 616.74 419.802 616.563 420.25 616.563C420.698 616.563 421.127 616.74 421.443 617.057C421.76 617.373 421.938 617.802 421.938 618.25Z" fill="#F1AE00"/>
<circle cx="839" cy="607" r="59" fill="black" stroke="#F1AE00" stroke-width="2"/>
<path d="M872.188 607C872.187 610.003 871.296 612.939 869.627 615.437C867.958 617.934 865.587 619.88 862.812 621.029C860.037 622.179 856.983 622.48 854.038 621.894C851.092 621.308 848.386 619.862 846.262 617.738C846.237 617.715 846.214 617.691 846.192 617.665L829.317 598.613C827.661 596.971 825.556 595.855 823.267 595.407C820.978 594.959 818.608 595.199 816.455 596.096C814.303 596.993 812.463 598.507 811.17 600.447C809.876 602.388 809.186 604.668 809.186 607C809.186 609.332 809.876 611.612 811.17 613.553C812.463 615.493 814.303 617.007 816.455 617.904C818.608 618.801 820.978 619.04 823.267 618.593C825.556 618.145 827.661 617.029 829.317 615.387L831.727 612.667C831.875 612.501 832.054 612.365 832.254 612.268C832.454 612.171 832.671 612.115 832.893 612.102C833.115 612.089 833.337 612.119 833.548 612.192C833.758 612.265 833.951 612.379 834.118 612.527C834.284 612.674 834.419 612.853 834.516 613.053C834.613 613.254 834.67 613.471 834.683 613.693C834.696 613.915 834.665 614.137 834.592 614.347C834.519 614.557 834.406 614.751 834.258 614.917L831.814 617.676C831.792 617.702 831.769 617.726 831.744 617.749C829.62 619.874 826.914 621.32 823.968 621.907C821.021 622.493 817.968 622.192 815.192 621.043C812.417 619.894 810.045 617.947 808.376 615.449C806.707 612.952 805.816 610.015 805.816 607.011C805.816 604.007 806.707 601.071 808.376 598.573C810.045 596.076 812.417 594.129 815.192 592.98C817.968 591.83 821.021 591.53 823.968 592.116C826.914 592.702 829.62 594.149 831.744 596.273C831.769 596.296 831.792 596.321 831.814 596.346L848.689 615.398C850.345 617.04 852.45 618.156 854.739 618.604C857.027 619.052 859.397 618.812 861.55 617.915C863.703 617.018 865.542 615.504 866.836 613.564C868.13 611.623 868.82 609.343 868.82 607.011C868.82 604.679 868.13 602.399 866.836 600.459C865.542 598.518 863.703 597.004 861.55 596.107C859.397 595.21 857.027 594.971 854.739 595.419C852.45 595.867 850.345 596.982 848.689 598.624L846.279 601.344C846.131 601.51 845.952 601.646 845.752 601.743C845.552 601.84 845.335 601.896 845.113 601.909C844.891 601.923 844.668 601.892 844.458 601.819C844.248 601.746 844.054 601.632 843.888 601.485C843.722 601.337 843.586 601.158 843.489 600.958C843.392 600.758 843.336 600.54 843.323 600.318C843.31 600.097 843.34 599.874 843.413 599.664C843.486 599.454 843.6 599.26 843.748 599.094L846.192 596.335C846.214 596.309 846.237 596.285 846.262 596.262C848.386 594.138 851.092 592.692 854.038 592.106C856.983 591.52 860.037 591.821 862.812 592.971C865.587 594.12 867.958 596.066 869.627 598.563C871.296 601.061 872.187 603.996 872.188 607Z" fill="#F1AE00"/>
</svg>
